<mxfile host="app.diagrams.net" agent="Mozilla/5.0 (Windows NT 10.0; Win64; x64) AppleWebKit/537.36 (KHTML, like Gecko) Chrome/123.0.0.0 Safari/537.36" version="26.1.0">
  <diagram id="C5RBs43oDa-KdzZeNtuy" name="Page-1">
    <mxGraphModel dx="1794" dy="1812" grid="1" gridSize="10" guides="1" tooltips="1" connect="1" arrows="1" fold="1" page="1" pageScale="1" pageWidth="827" pageHeight="1169" math="0" shadow="0">
      <root>
        <mxCell id="WIyWlLk6GJQsqaUBKTNV-0" />
        <mxCell id="WIyWlLk6GJQsqaUBKTNV-1" parent="WIyWlLk6GJQsqaUBKTNV-0" />
        <mxCell id="a0NVUiaUn0WBypQUBi8K-25" style="edgeStyle=none;curved=1;rounded=0;orthogonalLoop=1;jettySize=auto;html=1;entryX=0.5;entryY=0;entryDx=0;entryDy=0;fontSize=12;startSize=8;endSize=8;exitX=0.5;exitY=1;exitDx=0;exitDy=0;shadow=0;" parent="WIyWlLk6GJQsqaUBKTNV-1" source="a0NVUiaUn0WBypQUBi8K-27" target="a0NVUiaUn0WBypQUBi8K-17" edge="1">
          <mxGeometry relative="1" as="geometry">
            <mxPoint x="274" y="290" as="sourcePoint" />
          </mxGeometry>
        </mxCell>
        <mxCell id="a0NVUiaUn0WBypQUBi8K-28" value="" style="group;fillColor=#d5e8d4;strokeColor=#82b366;shadow=0;" parent="WIyWlLk6GJQsqaUBKTNV-1" vertex="1" connectable="0">
          <mxGeometry x="-171" y="70" width="269" height="140" as="geometry" />
        </mxCell>
        <mxCell id="a0NVUiaUn0WBypQUBi8K-27" value="" style="rounded=0;whiteSpace=wrap;html=1;fillColor=#d5e8d4;strokeColor=#82b366;shadow=0;" parent="a0NVUiaUn0WBypQUBi8K-28" vertex="1">
          <mxGeometry width="269" height="140" as="geometry" />
        </mxCell>
        <mxCell id="a0NVUiaUn0WBypQUBi8K-13" value="&lt;div style=&quot;line-height: 90%;&quot;&gt;&lt;h1 style=&quot;margin-top: 0px; line-height: 90%;&quot;&gt;&lt;font style=&quot;font-size: 18px; line-height: 90%;&quot;&gt;Collect Critical States&lt;/font&gt;&lt;/h1&gt;&lt;p&gt;&lt;font style=&quot;font-size: 14px;&quot;&gt;env=Merge-Env;&amp;nbsp;&amp;nbsp;&lt;span style=&quot;background-color: transparent; color: light-dark(rgb(0, 0, 0), rgb(255, 255, 255));&quot;&gt;episodes=1.000;&lt;/span&gt;&lt;/font&gt;&lt;/p&gt;&lt;p&gt;&lt;font style=&quot;font-size: 14px;&quot;&gt;&lt;span style=&quot;background-color: transparent; color: light-dark(rgb(0, 0, 0), rgb(255, 255, 255));&quot;&gt;input_model=PHM;&lt;span style=&quot;white-space: pre;&quot;&gt;&#x9;&lt;/span&gt;&lt;/span&gt;&lt;span style=&quot;background-color: transparent; color: light-dark(rgb(0, 0, 0), rgb(255, 255, 255));&quot;&gt;seed=2.000;&lt;/span&gt;&lt;/font&gt;&lt;/p&gt;&lt;/div&gt;" style="text;html=1;whiteSpace=wrap;overflow=hidden;rounded=0;align=center;container=0;fillColor=#d5e8d4;strokeColor=#82b366;shadow=0;" parent="a0NVUiaUn0WBypQUBi8K-28" vertex="1">
          <mxGeometry width="269" height="140" as="geometry" />
        </mxCell>
        <mxCell id="a0NVUiaUn0WBypQUBi8K-30" value="" style="group;fillColor=#d5e8d4;strokeColor=#82b366;shadow=0;" parent="WIyWlLk6GJQsqaUBKTNV-1" vertex="1" connectable="0">
          <mxGeometry x="-171" y="240" width="269" height="140" as="geometry" />
        </mxCell>
        <mxCell id="a0NVUiaUn0WBypQUBi8K-29" value="" style="rounded=0;whiteSpace=wrap;html=1;fillColor=#d5e8d4;strokeColor=#82b366;shadow=0;" parent="a0NVUiaUn0WBypQUBi8K-30" vertex="1">
          <mxGeometry width="269" height="140" as="geometry" />
        </mxCell>
        <mxCell id="a0NVUiaUn0WBypQUBi8K-17" value="&lt;div&gt;&lt;h1 style=&quot;margin-top: 0px;&quot;&gt;&lt;font style=&quot;font-size: 18px;&quot;&gt;Feed Replay Buffer&lt;/font&gt;&lt;/h1&gt;&lt;p&gt;&lt;font style=&quot;font-size: 14px;&quot;&gt;env=Merge-Env;&lt;/font&gt;&lt;/p&gt;&lt;p&gt;&lt;font style=&quot;font-size: 14px;&quot;&gt;&lt;span style=&quot;background-color: transparent; color: light-dark(rgb(0, 0, 0), rgb(255, 255, 255));&quot;&gt;i&lt;/span&gt;&lt;span style=&quot;background-color: transparent; color: light-dark(rgb(0, 0, 0), rgb(255, 255, 255));&quot;&gt;nput_states=critical states;&lt;/span&gt;&lt;/font&gt;&lt;/p&gt;&lt;p&gt;&lt;span style=&quot;background-color: transparent; color: light-dark(rgb(0, 0, 0), rgb(255, 255, 255));&quot;&gt;&lt;font style=&quot;font-size: 14px;&quot;&gt;predicting_model=PHM;&lt;/font&gt;&lt;/span&gt;&lt;/p&gt;&lt;/div&gt;" style="text;html=1;whiteSpace=wrap;overflow=hidden;rounded=0;align=center;container=0;fillColor=#d5e8d4;strokeColor=#82b366;shadow=0;" parent="a0NVUiaUn0WBypQUBi8K-30" vertex="1">
          <mxGeometry width="269" height="140" as="geometry" />
        </mxCell>
        <mxCell id="a0NVUiaUn0WBypQUBi8K-31" value="" style="group;shadow=0;fillColor=#dae8fc;strokeColor=#6c8ebf;" parent="WIyWlLk6GJQsqaUBKTNV-1" vertex="1" connectable="0">
          <mxGeometry x="-171" y="-60" width="270" height="100" as="geometry" />
        </mxCell>
        <mxCell id="a0NVUiaUn0WBypQUBi8K-32" value="" style="rounded=0;whiteSpace=wrap;html=1;shadow=0;" parent="a0NVUiaUn0WBypQUBi8K-31" vertex="1">
          <mxGeometry width="270" height="100" as="geometry" />
        </mxCell>
        <mxCell id="a0NVUiaUn0WBypQUBi8K-33" value="&lt;div style=&quot;line-height: 90%;&quot;&gt;&lt;p style=&quot;margin-top: 0px; line-height: 90%;&quot;&gt;&lt;span style=&quot;background-color: transparent; color: light-dark(rgb(0, 0, 0), rgb(255, 255, 255)); font-size: 18px; line-height: 90%;&quot;&gt;&lt;b&gt;Train Highway-Env Model&lt;br&gt;&lt;/b&gt;&lt;/span&gt;&lt;span style=&quot;background-color: transparent; color: light-dark(rgb(0, 0, 0), rgb(255, 255, 255)); font-size: 12px; font-weight: normal; line-height: 90%;&quot;&gt;&lt;br&gt;&lt;/span&gt;&lt;/p&gt;&lt;p&gt;&lt;font style=&quot;font-size: 14px;&quot;&gt;env=Highway-Env;&lt;span style=&quot;white-space: pre;&quot;&gt;&#x9;&lt;/span&gt;&lt;span style=&quot;background-color: transparent; color: light-dark(rgb(0, 0, 0), rgb(255, 255, 255));&quot;&gt;steps=100.000;&amp;nbsp;&lt;/span&gt;&lt;/font&gt;&lt;/p&gt;&lt;p&gt;&lt;font style=&quot;font-size: 14px;&quot;&gt;&lt;span style=&quot;background-color: transparent; color: light-dark(rgb(0, 0, 0), rgb(255, 255, 255));&quot;&gt;input_model=None;&lt;span style=&quot;white-space: pre;&quot;&gt;&#x9;&lt;/span&gt;&lt;span style=&quot;white-space: pre;&quot;&gt;&#x9;&lt;/span&gt;&lt;/span&gt;&lt;span style=&quot;background-color: transparent; color: light-dark(rgb(0, 0, 0), rgb(255, 255, 255));&quot;&gt;seed=X;&lt;/span&gt;&lt;/font&gt;&lt;/p&gt;&lt;/div&gt;" style="text;html=1;whiteSpace=wrap;overflow=hidden;rounded=0;align=center;container=0;fillColor=#dae8fc;strokeColor=#6c8ebf;shadow=0;" parent="a0NVUiaUn0WBypQUBi8K-31" vertex="1">
          <mxGeometry width="270" height="100" as="geometry" />
        </mxCell>
        <mxCell id="a0NVUiaUn0WBypQUBi8K-40" value="" style="group;fillColor=#d5e8d4;strokeColor=#82b366;shadow=0;" parent="WIyWlLk6GJQsqaUBKTNV-1" vertex="1" connectable="0">
          <mxGeometry x="142" y="70" width="270" height="140" as="geometry" />
        </mxCell>
        <mxCell id="a0NVUiaUn0WBypQUBi8K-41" value="" style="rounded=0;whiteSpace=wrap;html=1;fillColor=#d5e8d4;strokeColor=#82b366;shadow=0;" parent="a0NVUiaUn0WBypQUBi8K-40" vertex="1">
          <mxGeometry width="270" height="140.00000000000006" as="geometry" />
        </mxCell>
        <mxCell id="a0NVUiaUn0WBypQUBi8K-42" value="&lt;h1 style=&quot;margin-top: 0px; line-height: 90%;&quot;&gt;&lt;span style=&quot;background-color: transparent; color: light-dark(rgb(0, 0, 0), rgb(255, 255, 255)); font-size: 18px; line-height: 90%;&quot;&gt;Train Criticals Model&lt;br&gt;&lt;/span&gt;&lt;/h1&gt;&lt;div&gt;&lt;font style=&quot;font-size: 14px;&quot;&gt;&lt;span style=&quot;background-color: transparent; line-height: 90%; color: light-dark(rgb(0, 0, 0), rgb(255, 255, 255));&quot;&gt;&lt;p style=&quot;&quot;&gt;e&lt;span style=&quot;background-color: transparent; color: light-dark(rgb(0, 0, 0), rgb(255, 255, 255));&quot;&gt;nv=Merge-Env;&lt;span style=&quot;white-space: pre;&quot;&gt;&#x9;&lt;/span&gt;&lt;/span&gt;&lt;span style=&quot;background-color: transparent; color: light-dark(rgb(0, 0, 0), rgb(255, 255, 255));&quot;&gt;input_model=PHM;&lt;/span&gt;&lt;/p&gt;&lt;/span&gt;seed=X;&lt;span style=&quot;white-space: pre;&quot;&gt;&#x9;&lt;/span&gt;&lt;span style=&quot;color: light-dark(rgb(0, 0, 0), rgb(255, 255, 255)); background-color: transparent;&quot;&gt;steps=Number of Critical&amp;nbsp;&lt;/span&gt;&lt;span style=&quot;color: light-dark(rgb(0, 0, 0), rgb(255, 255, 255)); background-color: transparent;&quot;&gt;states;&lt;/span&gt;&lt;/font&gt;&lt;/div&gt;&lt;div&gt;&lt;span style=&quot;color: light-dark(rgb(0, 0, 0), rgb(255, 255, 255)); background-color: transparent;&quot;&gt;&lt;font style=&quot;font-size: 14px;&quot;&gt;&lt;br&gt;&lt;/font&gt;&lt;/span&gt;&lt;/div&gt;&lt;div&gt;&lt;span style=&quot;color: light-dark(rgb(0, 0, 0), rgb(255, 255, 255)); background-color: transparent;&quot;&gt;&lt;font style=&quot;font-size: 14px;&quot;&gt;Replay Buffer fed with Critical States&lt;/font&gt;&lt;/span&gt;&lt;/div&gt;" style="text;html=1;whiteSpace=wrap;overflow=hidden;rounded=0;align=center;container=0;fillColor=#d5e8d4;strokeColor=#82b366;shadow=0;" parent="a0NVUiaUn0WBypQUBi8K-40" vertex="1">
          <mxGeometry width="270" height="140" as="geometry" />
        </mxCell>
        <mxCell id="a0NVUiaUn0WBypQUBi8K-45" value="" style="group;fillColor=#fff2cc;strokeColor=#d6b656;shadow=0;" parent="WIyWlLk6GJQsqaUBKTNV-1" vertex="1" connectable="0">
          <mxGeometry x="-171" y="-170" width="270" height="80" as="geometry" />
        </mxCell>
        <mxCell id="a0NVUiaUn0WBypQUBi8K-46" value="" style="rounded=0;whiteSpace=wrap;html=1;fillColor=#fff2cc;strokeColor=#d6b656;shadow=0;" parent="a0NVUiaUn0WBypQUBi8K-45" vertex="1">
          <mxGeometry width="270" height="80" as="geometry" />
        </mxCell>
        <mxCell id="a0NVUiaUn0WBypQUBi8K-47" value="&lt;div style=&quot;line-height: 60%;&quot;&gt;&lt;h1 style=&quot;margin-top: 0px; line-height: 60%;&quot;&gt;&lt;span style=&quot;background-color: transparent; color: light-dark(rgb(0, 0, 0), rgb(255, 255, 255)); font-size: 18px; line-height: 60%;&quot;&gt;Train Highway-Merge Model&lt;/span&gt;&lt;/h1&gt;&lt;p&gt;&lt;font style=&quot;font-size: 14px;&quot;&gt;env=Merge-Env;&lt;span style=&quot;white-space: pre;&quot;&gt;&#x9;&lt;/span&gt;&lt;span style=&quot;background-color: transparent; color: light-dark(rgb(0, 0, 0), rgb(255, 255, 255));&quot;&gt;steps=10.000;&amp;nbsp;&lt;/span&gt;&lt;/font&gt;&lt;/p&gt;&lt;p&gt;&lt;font style=&quot;font-size: 14px;&quot;&gt;&lt;span style=&quot;background-color: transparent; color: light-dark(rgb(0, 0, 0), rgb(255, 255, 255));&quot;&gt;input_model=PHM;&lt;span style=&quot;white-space: pre;&quot;&gt;&#x9;&lt;/span&gt;&lt;span style=&quot;white-space: pre;&quot;&gt;&#x9;&lt;/span&gt;&lt;/span&gt;&lt;span style=&quot;background-color: transparent; color: light-dark(rgb(0, 0, 0), rgb(255, 255, 255));&quot;&gt;seed=X;&lt;/span&gt;&lt;/font&gt;&lt;/p&gt;&lt;/div&gt;" style="text;html=1;whiteSpace=wrap;overflow=hidden;rounded=0;align=center;container=0;fillColor=#fff2cc;strokeColor=#d6b656;shadow=0;" parent="a0NVUiaUn0WBypQUBi8K-45" vertex="1">
          <mxGeometry width="270" height="80" as="geometry" />
        </mxCell>
        <mxCell id="a0NVUiaUn0WBypQUBi8K-48" value="" style="group;shadow=0;" parent="WIyWlLk6GJQsqaUBKTNV-1" vertex="1" connectable="0">
          <mxGeometry x="438" y="121.25" width="280" height="37.5" as="geometry" />
        </mxCell>
        <mxCell id="a0NVUiaUn0WBypQUBi8K-49" value="" style="rounded=1;whiteSpace=wrap;html=1;shadow=0;" parent="a0NVUiaUn0WBypQUBi8K-48" vertex="1">
          <mxGeometry width="280" height="37.5" as="geometry" />
        </mxCell>
        <mxCell id="a0NVUiaUn0WBypQUBi8K-50" value="&lt;div style=&quot;line-height: 90%;&quot;&gt;&lt;h1 style=&quot;margin-top: 0px; line-height: 90%;&quot;&gt;&lt;font style=&quot;font-size: 18px; line-height: 90%;&quot;&gt;Highway-Merge Criticals (HMC)&lt;/font&gt;&lt;/h1&gt;&lt;/div&gt;" style="text;html=1;whiteSpace=wrap;overflow=hidden;rounded=0;align=center;shadow=0;" parent="a0NVUiaUn0WBypQUBi8K-48" vertex="1">
          <mxGeometry width="280" height="37.5" as="geometry" />
        </mxCell>
        <mxCell id="a0NVUiaUn0WBypQUBi8K-51" style="edgeStyle=none;curved=1;rounded=0;orthogonalLoop=1;jettySize=auto;html=1;exitX=0.5;exitY=1;exitDx=0;exitDy=0;fontSize=12;startSize=8;endSize=8;shadow=0;" parent="a0NVUiaUn0WBypQUBi8K-48" source="a0NVUiaUn0WBypQUBi8K-50" target="a0NVUiaUn0WBypQUBi8K-50" edge="1">
          <mxGeometry relative="1" as="geometry" />
        </mxCell>
        <mxCell id="a0NVUiaUn0WBypQUBi8K-52" style="edgeStyle=none;curved=1;rounded=0;orthogonalLoop=1;jettySize=auto;html=1;exitX=0.25;exitY=1;exitDx=0;exitDy=0;fontSize=12;startSize=8;endSize=8;shadow=0;" parent="a0NVUiaUn0WBypQUBi8K-48" source="a0NVUiaUn0WBypQUBi8K-50" target="a0NVUiaUn0WBypQUBi8K-50" edge="1">
          <mxGeometry relative="1" as="geometry" />
        </mxCell>
        <mxCell id="a0NVUiaUn0WBypQUBi8K-54" style="edgeStyle=none;curved=1;rounded=0;orthogonalLoop=1;jettySize=auto;html=1;exitX=0;exitY=1;exitDx=0;exitDy=0;fontSize=12;startSize=8;endSize=8;shadow=0;" parent="a0NVUiaUn0WBypQUBi8K-48" source="a0NVUiaUn0WBypQUBi8K-50" target="a0NVUiaUn0WBypQUBi8K-50" edge="1">
          <mxGeometry relative="1" as="geometry" />
        </mxCell>
        <mxCell id="a0NVUiaUn0WBypQUBi8K-55" value="" style="edgeStyle=none;curved=1;rounded=0;orthogonalLoop=1;jettySize=auto;html=1;fontSize=12;startSize=8;endSize=8;shadow=0;" parent="WIyWlLk6GJQsqaUBKTNV-1" source="a0NVUiaUn0WBypQUBi8K-42" target="a0NVUiaUn0WBypQUBi8K-50" edge="1">
          <mxGeometry relative="1" as="geometry" />
        </mxCell>
        <mxCell id="a0NVUiaUn0WBypQUBi8K-56" value="" style="group;align=left;shadow=0;" parent="WIyWlLk6GJQsqaUBKTNV-1" vertex="1" connectable="0">
          <mxGeometry x="438" y="-30" width="280" height="40" as="geometry" />
        </mxCell>
        <mxCell id="a0NVUiaUn0WBypQUBi8K-57" value="" style="rounded=1;whiteSpace=wrap;html=1;shadow=0;" parent="a0NVUiaUn0WBypQUBi8K-56" vertex="1">
          <mxGeometry width="279.99999999999994" height="40" as="geometry" />
        </mxCell>
        <mxCell id="a0NVUiaUn0WBypQUBi8K-58" value="&lt;div style=&quot;line-height: 90%;&quot;&gt;&lt;h1 style=&quot;margin-top: 0px; line-height: 90%;&quot;&gt;&lt;font style=&quot;font-size: 18px; line-height: 90%;&quot;&gt;Pure Highway Model (PHM)&lt;/font&gt;&lt;/h1&gt;&lt;/div&gt;" style="text;html=1;whiteSpace=wrap;overflow=hidden;rounded=0;align=center;shadow=0;" parent="a0NVUiaUn0WBypQUBi8K-56" vertex="1">
          <mxGeometry width="280" height="40" as="geometry" />
        </mxCell>
        <mxCell id="a0NVUiaUn0WBypQUBi8K-59" style="edgeStyle=none;curved=1;rounded=0;orthogonalLoop=1;jettySize=auto;html=1;exitX=0.5;exitY=1;exitDx=0;exitDy=0;fontSize=12;startSize=8;endSize=8;shadow=0;" parent="a0NVUiaUn0WBypQUBi8K-56" source="a0NVUiaUn0WBypQUBi8K-58" target="a0NVUiaUn0WBypQUBi8K-58" edge="1">
          <mxGeometry relative="1" as="geometry" />
        </mxCell>
        <mxCell id="a0NVUiaUn0WBypQUBi8K-60" style="edgeStyle=none;curved=1;rounded=0;orthogonalLoop=1;jettySize=auto;html=1;exitX=0.25;exitY=1;exitDx=0;exitDy=0;fontSize=12;startSize=8;endSize=8;shadow=0;" parent="a0NVUiaUn0WBypQUBi8K-56" source="a0NVUiaUn0WBypQUBi8K-58" target="a0NVUiaUn0WBypQUBi8K-58" edge="1">
          <mxGeometry relative="1" as="geometry" />
        </mxCell>
        <mxCell id="a0NVUiaUn0WBypQUBi8K-61" style="edgeStyle=none;curved=1;rounded=0;orthogonalLoop=1;jettySize=auto;html=1;exitX=0;exitY=1;exitDx=0;exitDy=0;fontSize=12;startSize=8;endSize=8;shadow=0;" parent="a0NVUiaUn0WBypQUBi8K-56" source="a0NVUiaUn0WBypQUBi8K-58" target="a0NVUiaUn0WBypQUBi8K-58" edge="1">
          <mxGeometry relative="1" as="geometry" />
        </mxCell>
        <mxCell id="a0NVUiaUn0WBypQUBi8K-62" value="" style="edgeStyle=none;curved=1;rounded=0;orthogonalLoop=1;jettySize=auto;html=1;fontSize=12;startSize=8;endSize=8;shadow=0;" parent="WIyWlLk6GJQsqaUBKTNV-1" source="a0NVUiaUn0WBypQUBi8K-33" target="a0NVUiaUn0WBypQUBi8K-58" edge="1">
          <mxGeometry relative="1" as="geometry" />
        </mxCell>
        <mxCell id="a0NVUiaUn0WBypQUBi8K-64" value="" style="edgeStyle=none;curved=1;rounded=0;orthogonalLoop=1;jettySize=auto;html=1;fontSize=12;startSize=8;endSize=8;shadow=0;" parent="WIyWlLk6GJQsqaUBKTNV-1" source="a0NVUiaUn0WBypQUBi8K-29" target="a0NVUiaUn0WBypQUBi8K-42" edge="1">
          <mxGeometry relative="1" as="geometry">
            <Array as="points">
              <mxPoint x="128" y="260" />
            </Array>
          </mxGeometry>
        </mxCell>
        <mxCell id="a0NVUiaUn0WBypQUBi8K-65" value="" style="edgeStyle=none;curved=1;rounded=0;orthogonalLoop=1;jettySize=auto;html=1;fontSize=12;startSize=8;endSize=8;shadow=0;" parent="WIyWlLk6GJQsqaUBKTNV-1" source="a0NVUiaUn0WBypQUBi8K-33" target="a0NVUiaUn0WBypQUBi8K-13" edge="1">
          <mxGeometry relative="1" as="geometry" />
        </mxCell>
        <mxCell id="a0NVUiaUn0WBypQUBi8K-67" style="edgeStyle=none;curved=1;rounded=0;orthogonalLoop=1;jettySize=auto;html=1;exitX=0.5;exitY=0;exitDx=0;exitDy=0;entryX=0.5;entryY=1;entryDx=0;entryDy=0;fontSize=12;startSize=8;endSize=8;shadow=0;" parent="WIyWlLk6GJQsqaUBKTNV-1" source="a0NVUiaUn0WBypQUBi8K-33" target="a0NVUiaUn0WBypQUBi8K-47" edge="1">
          <mxGeometry relative="1" as="geometry" />
        </mxCell>
        <mxCell id="a0NVUiaUn0WBypQUBi8K-68" value="" style="group;shadow=0;" parent="WIyWlLk6GJQsqaUBKTNV-1" vertex="1" connectable="0">
          <mxGeometry x="438" y="-150" width="280" height="40" as="geometry" />
        </mxCell>
        <mxCell id="a0NVUiaUn0WBypQUBi8K-69" value="" style="rounded=1;whiteSpace=wrap;html=1;shadow=0;" parent="a0NVUiaUn0WBypQUBi8K-68" vertex="1">
          <mxGeometry width="280" height="40" as="geometry" />
        </mxCell>
        <mxCell id="a0NVUiaUn0WBypQUBi8K-70" value="&lt;div style=&quot;line-height: 90%;&quot;&gt;&lt;h1 style=&quot;margin-top: 0px; line-height: 90%;&quot;&gt;&lt;font style=&quot;font-size: 18px; line-height: 90%;&quot;&gt;Highway-Merge Model (HMM)&lt;/font&gt;&lt;/h1&gt;&lt;/div&gt;" style="text;html=1;whiteSpace=wrap;overflow=hidden;rounded=0;align=center;shadow=0;" parent="a0NVUiaUn0WBypQUBi8K-68" vertex="1">
          <mxGeometry width="280" height="40" as="geometry" />
        </mxCell>
        <mxCell id="a0NVUiaUn0WBypQUBi8K-71" style="edgeStyle=none;curved=1;rounded=0;orthogonalLoop=1;jettySize=auto;html=1;exitX=0.5;exitY=1;exitDx=0;exitDy=0;fontSize=12;startSize=8;endSize=8;shadow=0;" parent="a0NVUiaUn0WBypQUBi8K-68" source="a0NVUiaUn0WBypQUBi8K-70" target="a0NVUiaUn0WBypQUBi8K-70" edge="1">
          <mxGeometry relative="1" as="geometry" />
        </mxCell>
        <mxCell id="a0NVUiaUn0WBypQUBi8K-72" style="edgeStyle=none;curved=1;rounded=0;orthogonalLoop=1;jettySize=auto;html=1;exitX=0.25;exitY=1;exitDx=0;exitDy=0;fontSize=12;startSize=8;endSize=8;shadow=0;" parent="a0NVUiaUn0WBypQUBi8K-68" source="a0NVUiaUn0WBypQUBi8K-70" target="a0NVUiaUn0WBypQUBi8K-70" edge="1">
          <mxGeometry relative="1" as="geometry" />
        </mxCell>
        <mxCell id="a0NVUiaUn0WBypQUBi8K-73" style="edgeStyle=none;curved=1;rounded=0;orthogonalLoop=1;jettySize=auto;html=1;exitX=0;exitY=1;exitDx=0;exitDy=0;fontSize=12;startSize=8;endSize=8;shadow=0;" parent="a0NVUiaUn0WBypQUBi8K-68" source="a0NVUiaUn0WBypQUBi8K-70" target="a0NVUiaUn0WBypQUBi8K-70" edge="1">
          <mxGeometry relative="1" as="geometry" />
        </mxCell>
        <mxCell id="a0NVUiaUn0WBypQUBi8K-74" value="" style="edgeStyle=none;curved=1;rounded=0;orthogonalLoop=1;jettySize=auto;html=1;fontSize=12;startSize=8;endSize=8;shadow=0;" parent="WIyWlLk6GJQsqaUBKTNV-1" source="a0NVUiaUn0WBypQUBi8K-47" target="a0NVUiaUn0WBypQUBi8K-70" edge="1">
          <mxGeometry relative="1" as="geometry" />
        </mxCell>
        <mxCell id="a0NVUiaUn0WBypQUBi8K-76" value="" style="group;fillColor=#dae8fc;strokeColor=#6c8ebf;shadow=0;" parent="WIyWlLk6GJQsqaUBKTNV-1" vertex="1" connectable="0">
          <mxGeometry x="128" y="290" width="270" height="90" as="geometry" />
        </mxCell>
        <mxCell id="a0NVUiaUn0WBypQUBi8K-77" value="" style="rounded=0;whiteSpace=wrap;html=1;fillColor=#dae8fc;strokeColor=#6c8ebf;shadow=0;" parent="a0NVUiaUn0WBypQUBi8K-76" vertex="1">
          <mxGeometry width="270" height="90" as="geometry" />
        </mxCell>
        <mxCell id="a0NVUiaUn0WBypQUBi8K-78" value="&lt;div style=&quot;line-height: 40%;&quot;&gt;&lt;h1 style=&quot;margin-top: 0px; line-height: 40%;&quot;&gt;&lt;span style=&quot;background-color: transparent; color: light-dark(rgb(0, 0, 0), rgb(255, 255, 255)); font-size: 18px; line-height: 40%;&quot;&gt;Train Highway-Merge Model&lt;/span&gt;&lt;/h1&gt;&lt;h1 style=&quot;margin-top: 0px; line-height: 40%;&quot;&gt;&lt;font style=&quot;font-size: 14px;&quot;&gt;&lt;span style=&quot;background-color: transparent; color: light-dark(rgb(0, 0, 0), rgb(255, 255, 255)); font-weight: normal; line-height: 40%;&quot;&gt;env=Merge-Env;&lt;span style=&quot;white-space: pre;&quot;&gt;&#x9;&lt;/span&gt;&lt;/span&gt;&lt;span style=&quot;font-weight: normal;&quot;&gt;&lt;font style=&quot;line-height: 40%;&quot;&gt;input_model=None;&lt;/font&gt;&lt;/span&gt;&lt;/font&gt;&lt;/h1&gt;&lt;h1 style=&quot;margin-top: 0px; line-height: 40%;&quot;&gt;&lt;font style=&quot;font-size: 14px;&quot;&gt;&lt;span style=&quot;background-color: transparent; color: light-dark(rgb(0, 0, 0), rgb(255, 255, 255)); font-weight: normal; line-height: 40%;&quot;&gt;seed=X;&lt;span style=&quot;white-space: pre;&quot;&gt;&#x9;&lt;/span&gt;&lt;/span&gt;&lt;span style=&quot;font-weight: normal;&quot;&gt;&lt;font style=&quot;line-height: 40%;&quot;&gt;steps=100.000;&amp;nbsp;&lt;/font&gt;&lt;/span&gt;&lt;/font&gt;&lt;/h1&gt;&lt;/div&gt;" style="text;html=1;whiteSpace=wrap;overflow=hidden;rounded=0;align=center;container=0;fillColor=#dae8fc;strokeColor=#6c8ebf;shadow=0;" parent="a0NVUiaUn0WBypQUBi8K-76" vertex="1">
          <mxGeometry width="270" height="90" as="geometry" />
        </mxCell>
        <mxCell id="a0NVUiaUn0WBypQUBi8K-82" value="" style="group;shadow=0;" parent="WIyWlLk6GJQsqaUBKTNV-1" vertex="1" connectable="0">
          <mxGeometry x="438" y="316.25" width="280" height="37.5" as="geometry" />
        </mxCell>
        <mxCell id="a0NVUiaUn0WBypQUBi8K-83" value="" style="rounded=1;whiteSpace=wrap;html=1;shadow=0;" parent="a0NVUiaUn0WBypQUBi8K-82" vertex="1">
          <mxGeometry width="280" height="37.5" as="geometry" />
        </mxCell>
        <mxCell id="a0NVUiaUn0WBypQUBi8K-84" value="&lt;div style=&quot;line-height: 90%;&quot;&gt;&lt;h1 style=&quot;margin-top: 0px; line-height: 90%;&quot;&gt;&lt;font style=&quot;font-size: 18px; line-height: 90%;&quot;&gt;Pure Merge Model (PMM)&lt;/font&gt;&lt;/h1&gt;&lt;/div&gt;" style="text;html=1;whiteSpace=wrap;overflow=hidden;rounded=0;align=center;shadow=0;" parent="a0NVUiaUn0WBypQUBi8K-82" vertex="1">
          <mxGeometry width="280" height="37.5" as="geometry" />
        </mxCell>
        <mxCell id="a0NVUiaUn0WBypQUBi8K-85" style="edgeStyle=none;curved=1;rounded=0;orthogonalLoop=1;jettySize=auto;html=1;exitX=0.5;exitY=1;exitDx=0;exitDy=0;fontSize=12;startSize=8;endSize=8;shadow=0;" parent="a0NVUiaUn0WBypQUBi8K-82" source="a0NVUiaUn0WBypQUBi8K-84" target="a0NVUiaUn0WBypQUBi8K-84" edge="1">
          <mxGeometry relative="1" as="geometry" />
        </mxCell>
        <mxCell id="a0NVUiaUn0WBypQUBi8K-86" style="edgeStyle=none;curved=1;rounded=0;orthogonalLoop=1;jettySize=auto;html=1;exitX=0.25;exitY=1;exitDx=0;exitDy=0;fontSize=12;startSize=8;endSize=8;shadow=0;" parent="a0NVUiaUn0WBypQUBi8K-82" source="a0NVUiaUn0WBypQUBi8K-84" target="a0NVUiaUn0WBypQUBi8K-84" edge="1">
          <mxGeometry relative="1" as="geometry" />
        </mxCell>
        <mxCell id="a0NVUiaUn0WBypQUBi8K-87" style="edgeStyle=none;curved=1;rounded=0;orthogonalLoop=1;jettySize=auto;html=1;exitX=0;exitY=1;exitDx=0;exitDy=0;fontSize=12;startSize=8;endSize=8;shadow=0;" parent="a0NVUiaUn0WBypQUBi8K-82" source="a0NVUiaUn0WBypQUBi8K-84" target="a0NVUiaUn0WBypQUBi8K-84" edge="1">
          <mxGeometry relative="1" as="geometry" />
        </mxCell>
        <mxCell id="a0NVUiaUn0WBypQUBi8K-88" value="" style="edgeStyle=none;curved=1;rounded=0;orthogonalLoop=1;jettySize=auto;html=1;fontSize=12;startSize=8;endSize=8;shadow=0;" parent="WIyWlLk6GJQsqaUBKTNV-1" source="a0NVUiaUn0WBypQUBi8K-78" target="a0NVUiaUn0WBypQUBi8K-84" edge="1">
          <mxGeometry relative="1" as="geometry" />
        </mxCell>
        <mxCell id="a0NVUiaUn0WBypQUBi8K-90" value="" style="group;fillColor=#e1d5e7;strokeColor=#9673a6;shadow=0;" parent="WIyWlLk6GJQsqaUBKTNV-1" vertex="1" connectable="0">
          <mxGeometry x="758" y="-180" width="240" height="100" as="geometry" />
        </mxCell>
        <mxCell id="a0NVUiaUn0WBypQUBi8K-91" value="" style="rounded=0;whiteSpace=wrap;html=1;fillColor=#e1d5e7;strokeColor=#9673a6;shadow=0;" parent="a0NVUiaUn0WBypQUBi8K-90" vertex="1">
          <mxGeometry width="220" height="100" as="geometry" />
        </mxCell>
        <mxCell id="a0NVUiaUn0WBypQUBi8K-92" value="&lt;div style=&quot;line-height: 90%;&quot;&gt;&lt;h1 style=&quot;margin-top: 0px; line-height: 90%;&quot;&gt;&lt;font style=&quot;font-size: 18px; line-height: 90%;&quot;&gt;Test the Model&lt;/font&gt;&lt;/h1&gt;&lt;p&gt;&lt;font style=&quot;font-size: 14px;&quot;&gt;env=Merge-Env;&lt;span style=&quot;white-space: pre;&quot;&gt;&#x9;&lt;/span&gt;&lt;span style=&quot;background-color: transparent; color: light-dark(rgb(0, 0, 0), rgb(255, 255, 255));&quot;&gt;episodes=1.000;&amp;nbsp;&lt;/span&gt;&lt;/font&gt;&lt;/p&gt;&lt;p&gt;&lt;font style=&quot;font-size: 14px;&quot;&gt;&lt;span style=&quot;background-color: transparent; color: light-dark(rgb(0, 0, 0), rgb(255, 255, 255));&quot;&gt;input_model=HMM;&lt;span style=&quot;white-space: pre;&quot;&gt;&#x9;&lt;/span&gt;&amp;nbsp;&amp;nbsp;&lt;/span&gt;&lt;span style=&quot;background-color: transparent; color: light-dark(rgb(0, 0, 0), rgb(255, 255, 255));&quot;&gt;seed=2.000;&lt;/span&gt;&lt;/font&gt;&lt;/p&gt;&lt;/div&gt;" style="text;html=1;whiteSpace=wrap;overflow=hidden;rounded=0;align=center;container=0;fillColor=#e1d5e7;strokeColor=#9673a6;shadow=0;" parent="a0NVUiaUn0WBypQUBi8K-90" vertex="1">
          <mxGeometry width="240" height="100" as="geometry" />
        </mxCell>
        <mxCell id="a0NVUiaUn0WBypQUBi8K-93" value="" style="edgeStyle=none;curved=1;rounded=0;orthogonalLoop=1;jettySize=auto;html=1;fontSize=12;startSize=8;endSize=8;" parent="WIyWlLk6GJQsqaUBKTNV-1" source="a0NVUiaUn0WBypQUBi8K-70" target="a0NVUiaUn0WBypQUBi8K-92" edge="1">
          <mxGeometry relative="1" as="geometry" />
        </mxCell>
        <mxCell id="a0NVUiaUn0WBypQUBi8K-94" value="" style="group;fillColor=#e1d5e7;strokeColor=#9673a6;shadow=0;" parent="WIyWlLk6GJQsqaUBKTNV-1" vertex="1" connectable="0">
          <mxGeometry x="754" y="90" width="244" height="100" as="geometry" />
        </mxCell>
        <mxCell id="a0NVUiaUn0WBypQUBi8K-95" value="" style="rounded=0;whiteSpace=wrap;html=1;fillColor=#e1d5e7;strokeColor=#9673a6;shadow=0;" parent="a0NVUiaUn0WBypQUBi8K-94" vertex="1">
          <mxGeometry width="223.66666666666666" height="100" as="geometry" />
        </mxCell>
        <mxCell id="a0NVUiaUn0WBypQUBi8K-96" value="&lt;div style=&quot;line-height: 90%;&quot;&gt;&lt;h1 style=&quot;margin-top: 0px; line-height: 90%;&quot;&gt;&lt;font style=&quot;font-size: 18px; line-height: 90%;&quot;&gt;Test the Model&lt;/font&gt;&lt;/h1&gt;&lt;p&gt;&lt;font style=&quot;font-size: 14px;&quot;&gt;env=Merge-Env;&lt;span style=&quot;white-space: pre;&quot;&gt;&#x9;&lt;/span&gt;episodes&lt;span style=&quot;background-color: transparent; color: light-dark(rgb(0, 0, 0), rgb(255, 255, 255));&quot;&gt;=1.000;&amp;nbsp;&lt;/span&gt;&lt;/font&gt;&lt;/p&gt;&lt;p&gt;&lt;font style=&quot;font-size: 14px;&quot;&gt;&lt;span style=&quot;background-color: transparent; color: light-dark(rgb(0, 0, 0), rgb(255, 255, 255));&quot;&gt;input_model=HMC;&lt;span style=&quot;white-space: pre;&quot;&gt;&#x9;&lt;/span&gt;&amp;nbsp;&amp;nbsp;&lt;/span&gt;&lt;span style=&quot;background-color: transparent; color: light-dark(rgb(0, 0, 0), rgb(255, 255, 255));&quot;&gt;seed=2.000;&lt;/span&gt;&lt;/font&gt;&lt;/p&gt;&lt;/div&gt;" style="text;html=1;whiteSpace=wrap;overflow=hidden;rounded=0;align=center;container=0;fillColor=#e1d5e7;strokeColor=#9673a6;shadow=0;" parent="a0NVUiaUn0WBypQUBi8K-94" vertex="1">
          <mxGeometry width="244" height="100" as="geometry" />
        </mxCell>
        <mxCell id="a0NVUiaUn0WBypQUBi8K-97" value="" style="edgeStyle=none;curved=1;rounded=0;orthogonalLoop=1;jettySize=auto;html=1;fontSize=12;startSize=8;endSize=8;" parent="WIyWlLk6GJQsqaUBKTNV-1" source="a0NVUiaUn0WBypQUBi8K-50" target="a0NVUiaUn0WBypQUBi8K-96" edge="1">
          <mxGeometry relative="1" as="geometry" />
        </mxCell>
        <mxCell id="a0NVUiaUn0WBypQUBi8K-98" value="" style="group;fillColor=#e1d5e7;strokeColor=#9673a6;shadow=0;" parent="WIyWlLk6GJQsqaUBKTNV-1" vertex="1" connectable="0">
          <mxGeometry x="754" y="290" width="244" height="100" as="geometry" />
        </mxCell>
        <mxCell id="a0NVUiaUn0WBypQUBi8K-99" value="" style="rounded=0;whiteSpace=wrap;html=1;fillColor=#e1d5e7;strokeColor=#9673a6;shadow=0;" parent="a0NVUiaUn0WBypQUBi8K-98" vertex="1">
          <mxGeometry width="244" height="100" as="geometry" />
        </mxCell>
        <mxCell id="a0NVUiaUn0WBypQUBi8K-100" value="&lt;div style=&quot;line-height: 90%;&quot;&gt;&lt;h1 style=&quot;margin-top: 0px; line-height: 90%;&quot;&gt;&lt;font style=&quot;font-size: 18px; line-height: 90%;&quot;&gt;Test the Model&lt;/font&gt;&lt;/h1&gt;&lt;p&gt;&lt;font style=&quot;font-size: 14px;&quot;&gt;env=Merge-Env;&lt;span style=&quot;white-space: pre;&quot;&gt;&#x9;&lt;/span&gt;episodes&lt;span style=&quot;background-color: transparent; color: light-dark(rgb(0, 0, 0), rgb(255, 255, 255));&quot;&gt;=1.000;&amp;nbsp;&lt;/span&gt;&lt;/font&gt;&lt;/p&gt;&lt;p&gt;&lt;font style=&quot;font-size: 14px;&quot;&gt;&lt;span style=&quot;background-color: transparent; color: light-dark(rgb(0, 0, 0), rgb(255, 255, 255));&quot;&gt;input_model=PMM;&lt;span style=&quot;white-space: pre;&quot;&gt;&#x9;&lt;/span&gt;&amp;nbsp;&amp;nbsp;&lt;/span&gt;&lt;span style=&quot;background-color: transparent; color: light-dark(rgb(0, 0, 0), rgb(255, 255, 255));&quot;&gt;seed=2.000;&lt;/span&gt;&lt;/font&gt;&lt;/p&gt;&lt;/div&gt;" style="text;html=1;whiteSpace=wrap;overflow=hidden;rounded=0;align=center;container=0;fillColor=#e1d5e7;strokeColor=#9673a6;shadow=0;" parent="a0NVUiaUn0WBypQUBi8K-98" vertex="1">
          <mxGeometry width="244" height="100" as="geometry" />
        </mxCell>
        <mxCell id="a0NVUiaUn0WBypQUBi8K-101" value="" style="edgeStyle=none;curved=1;rounded=0;orthogonalLoop=1;jettySize=auto;html=1;fontSize=12;startSize=8;endSize=8;" parent="WIyWlLk6GJQsqaUBKTNV-1" source="a0NVUiaUn0WBypQUBi8K-84" target="a0NVUiaUn0WBypQUBi8K-100" edge="1">
          <mxGeometry relative="1" as="geometry" />
        </mxCell>
        <mxCell id="a0NVUiaUn0WBypQUBi8K-112" value="" style="group;fillColor=#f5f5f5;fontColor=#333333;strokeColor=none;" parent="WIyWlLk6GJQsqaUBKTNV-1" vertex="1" connectable="0">
          <mxGeometry x="128" y="420" width="270" height="50" as="geometry" />
        </mxCell>
        <mxCell id="a0NVUiaUn0WBypQUBi8K-110" value="" style="rounded=1;whiteSpace=wrap;html=1;fillColor=#f5f5f5;fontColor=#333333;strokeColor=#666666;" parent="a0NVUiaUn0WBypQUBi8K-112" vertex="1">
          <mxGeometry width="270" height="50" as="geometry" />
        </mxCell>
        <mxCell id="a0NVUiaUn0WBypQUBi8K-111" value="Seed &lt;b&gt;X&lt;/b&gt; = 2.000 * Experiment No." style="text;html=1;align=center;verticalAlign=middle;resizable=0;points=[];autosize=1;strokeColor=none;fillColor=#f5f5f5;fontSize=16;fontColor=#333333;" parent="a0NVUiaUn0WBypQUBi8K-112" vertex="1">
          <mxGeometry x="4.996720779220779" y="10" width="260" height="30" as="geometry" />
        </mxCell>
        <mxCell id="a0NVUiaUn0WBypQUBi8K-113" value="&lt;h1&gt;Diagram of Model Training and Evaluation Experiment&lt;/h1&gt;" style="text;html=1;align=center;verticalAlign=middle;resizable=0;points=[];autosize=1;strokeColor=none;fillColor=none;fontSize=16;" parent="WIyWlLk6GJQsqaUBKTNV-1" vertex="1">
          <mxGeometry x="-6" y="-260" width="840" height="90" as="geometry" />
        </mxCell>
        <mxCell id="a0NVUiaUn0WBypQUBi8K-104" value="" style="group" parent="WIyWlLk6GJQsqaUBKTNV-1" vertex="1" connectable="0">
          <mxGeometry x="368" y="397.5" width="400.00000000000006" height="95.00173913043479" as="geometry" />
        </mxCell>
        <mxCell id="a0NVUiaUn0WBypQUBi8K-102" value="" style="rounded=0;whiteSpace=wrap;html=1;" parent="a0NVUiaUn0WBypQUBi8K-104" vertex="1">
          <mxGeometry x="40" y="4.3181818181818175" width="339.99999999999994" height="86.36363636363636" as="geometry" />
        </mxCell>
        <mxCell id="a0NVUiaUn0WBypQUBi8K-106" value="" style="rounded=0;whiteSpace=wrap;html=1;fillColor=#d5e8d4;strokeColor=#82b366;" parent="a0NVUiaUn0WBypQUBi8K-104" vertex="1">
          <mxGeometry x="45" y="12.92391304347826" width="33.26086956521739" height="12.95304347826087" as="geometry" />
        </mxCell>
        <mxCell id="a0NVUiaUn0WBypQUBi8K-107" value="" style="rounded=0;whiteSpace=wrap;html=1;fillColor=#fff2cc;strokeColor=#d6b656;" parent="a0NVUiaUn0WBypQUBi8K-104" vertex="1">
          <mxGeometry x="44.86086956521739" y="33.14826086956522" width="33.4" height="12.391304347826088" as="geometry" />
        </mxCell>
        <mxCell id="a0NVUiaUn0WBypQUBi8K-108" value="" style="rounded=0;whiteSpace=wrap;html=1;fillColor=#dae8fc;strokeColor=#6c8ebf;" parent="a0NVUiaUn0WBypQUBi8K-104" vertex="1">
          <mxGeometry x="44.86086956521739" y="51.84391304347826" width="33.4" height="12.391304347826088" as="geometry" />
        </mxCell>
        <mxCell id="a0NVUiaUn0WBypQUBi8K-109" value="" style="rounded=0;whiteSpace=wrap;html=1;fillColor=#e1d5e7;strokeColor=#9673a6;" parent="a0NVUiaUn0WBypQUBi8K-104" vertex="1">
          <mxGeometry x="44.86086956521739" y="70.53956521739131" width="33.4" height="12.391304347826088" as="geometry" />
        </mxCell>
        <mxCell id="a0NVUiaUn0WBypQUBi8K-103" value="&lt;div&gt;&lt;font style=&quot;font-size: 14px;&quot;&gt;Training Criticals Transfer Learning Model&lt;/font&gt;&lt;/div&gt;&lt;div&gt;&lt;font style=&quot;font-size: 14px;&quot;&gt;Training Traditional Transfer Learning Model&lt;/font&gt;&lt;/div&gt;&lt;div&gt;&lt;font style=&quot;font-size: 14px;&quot;&gt;Training Pure Reinforcement Learning Model&lt;/font&gt;&lt;/div&gt;&lt;div&gt;&lt;font style=&quot;font-size: 14px;&quot;&gt;Evaluating Models&#39; Performance&lt;/font&gt;&lt;/div&gt;" style="text;html=1;align=left;verticalAlign=middle;resizable=0;points=[];autosize=1;strokeColor=none;fillColor=none;fontSize=16;" parent="a0NVUiaUn0WBypQUBi8K-104" vertex="1">
          <mxGeometry x="80" y="2.0017391304347836" width="300" height="90" as="geometry" />
        </mxCell>
      </root>
    </mxGraphModel>
  </diagram>
</mxfile>
